<?xml version="1.0" encoding="UTF-8" standalone="no"?><svg xmlns="http://www.w3.org/2000/svg" xmlns:xlink="http://www.w3.org/1999/xlink" contentScriptType="application/ecmascript" contentStyleType="text/css" height="747px" preserveAspectRatio="none" style="width:1341px;height:747px;" version="1.1" viewBox="0 0 1341 747" width="1341px" zoomAndPan="magnify"><defs><filter height="300%" id="f94o6es" width="300%" x="-1" y="-1"><feGaussianBlur result="blurOut" stdDeviation="2.0"/><feColorMatrix in="blurOut" result="blurOut2" type="matrix" values="0 0 0 0 0 0 0 0 0 0 0 0 0 0 0 0 0 0 .4 0"/><feOffset dx="4.0" dy="4.0" in="blurOut2" result="blurOut3"/><feBlend in="SourceGraphic" in2="blurOut3" mode="normal"/></filter></defs><g><!--cluster ddemo-component--><rect fill="#FAFAFA" filter="url(#f94o6es)" height="714" style="stroke: #448AFF; stroke-width: 2.0;" width="1310" x="22" y="24"/><rect fill="#FAFAFA" height="10" style="stroke: #448AFF; stroke-width: 2.0;" width="15" x="1312" y="29"/><rect fill="#FAFAFA" height="2" style="stroke: #448AFF; stroke-width: 2.0;" width="4" x="1310" y="31"/><rect fill="#FAFAFA" height="2" style="stroke: #448AFF; stroke-width: 2.0;" width="4" x="1310" y="35"/><text fill="#000000" font-family="sans-serif" font-size="14" font-weight="bold" lengthAdjust="spacingAndGlyphs" textLength="149" x="602.5" y="49.9951">ddemo-component</text><!--entity valueelement_response--><rect fill="#FFFFFF" filter="url(#f94o6es)" height="36.2969" style="stroke: #999999; stroke-width: 1.5;" width="93" x="1110" y="520"/><text fill="#000000" font-family="sans-serif" font-size="14" lengthAdjust="spacingAndGlyphs" textLength="73" x="1120" y="542.9951">_response</text><!--entity interfaceValueelement_responseSet--><ellipse cx="1038" cy="530" fill="#D3D3D3" filter="url(#f94o6es)" rx="8" ry="8" style="stroke: #808080; stroke-width: 2.0;"/><text fill="#000000" font-family="sans-serif" font-size="14" lengthAdjust="spacingAndGlyphs" textLength="22" x="1027" y="551.9951">set</text><!--entity interfaceValueelement_responseChange--><ellipse cx="1290" cy="530" fill="#FFFFFF" filter="url(#f94o6es)" rx="8" ry="8" style="stroke: #808080; stroke-width: 2.0;"/><text fill="#000000" font-family="sans-serif" font-size="14" lengthAdjust="spacingAndGlyphs" textLength="52" x="1264" y="551.9951">change</text><!--entity ironAjax--><rect fill="#FFFFFF" filter="url(#f94o6es)" height="36.2969" style="stroke: #448AFF; stroke-width: 1.5;" width="73" x="766" y="520"/><rect fill="#FFFFFF" height="5" style="stroke: #448AFF; stroke-width: 1.5;" width="10" x="761" y="525"/><rect fill="#FFFFFF" height="5" style="stroke: #448AFF; stroke-width: 1.5;" width="10" x="761" y="546.2969"/><text fill="#000000" font-family="sans-serif" font-size="14" lengthAdjust="spacingAndGlyphs" textLength="53" x="776" y="542.9951">ironAjax</text><!--entity fireFire--><path d="M247,97 L247,121 M247,109 L264,109 " fill="#64B5F6" filter="url(#f94o6es)" style="stroke: #808080; stroke-width: 2.0;"/><ellipse cx="276" cy="109" fill="#64B5F6" filter="url(#f94o6es)" rx="12" ry="12" style="stroke: #808080; stroke-width: 2.0;"/><text fill="#000000" font-family="sans-serif" font-size="14" lengthAdjust="spacingAndGlyphs" textLength="21" x="257" y="137.9951">fire</text><!--entity valueObserver--><rect fill="#FFFFFF" filter="url(#f94o6es)" height="36.2969" style="stroke: #448AFF; stroke-width: 1.5;" width="119" x="38" y="210"/><rect fill="#FFFFFF" height="5" style="stroke: #448AFF; stroke-width: 1.5;" width="10" x="33" y="215"/><rect fill="#FFFFFF" height="5" style="stroke: #448AFF; stroke-width: 1.5;" width="10" x="33" y="236.2969"/><text fill="#000000" font-family="sans-serif" font-size="14" lengthAdjust="spacingAndGlyphs" textLength="99" x="48" y="232.9951">valueObserver</text><!--entity valueelementtestb--><rect fill="#FFFFFF" filter="url(#f94o6es)" height="36.2969" style="stroke: #999999; stroke-width: 1.5;" width="56" x="774.5" y="331"/><text fill="#000000" font-family="sans-serif" font-size="14" lengthAdjust="spacingAndGlyphs" textLength="36" x="784.5" y="353.9951">testb</text><!--entity interfaceValueelementtestbSet--><ellipse cx="635" cy="346" fill="#D3D3D3" filter="url(#f94o6es)" rx="8" ry="8" style="stroke: #808080; stroke-width: 2.0;"/><text fill="#000000" font-family="sans-serif" font-size="14" lengthAdjust="spacingAndGlyphs" textLength="22" x="624" y="367.9951">set</text><!--entity interfaceValueelementtestbChange--><ellipse cx="933" cy="341" fill="#FFFFFF" filter="url(#f94o6es)" rx="8" ry="8" style="stroke: #808080; stroke-width: 2.0;"/><text fill="#000000" font-family="sans-serif" font-size="14" lengthAdjust="spacingAndGlyphs" textLength="52" x="907" y="362.9951">change</text><!--entity boundaryValueelementtestbIn--><path d="M782,441 L782,465 M782,453 L799,453 " fill="#FFB74D" filter="url(#f94o6es)" style="stroke: #808080; stroke-width: 2.0;"/><ellipse cx="811" cy="453" fill="#FFB74D" filter="url(#f94o6es)" rx="12" ry="12" style="stroke: #808080; stroke-width: 2.0;"/><text fill="#000000" font-family="sans-serif" font-size="14" lengthAdjust="spacingAndGlyphs" textLength="36" x="784.5" y="481.9951">testb</text><!--entity valueelementtest--><rect fill="#FFFFFF" filter="url(#f94o6es)" height="36.2969" style="stroke: #999999; stroke-width: 1.5;" width="47" x="779" y="59"/><text fill="#000000" font-family="sans-serif" font-size="14" lengthAdjust="spacingAndGlyphs" textLength="27" x="789" y="81.9951">test</text><!--entity interfaceValueelementtestSet--><ellipse cx="635" cy="84" fill="#D3D3D3" filter="url(#f94o6es)" rx="8" ry="8" style="stroke: #808080; stroke-width: 2.0;"/><text fill="#000000" font-family="sans-serif" font-size="14" lengthAdjust="spacingAndGlyphs" textLength="22" x="624" y="105.9951">set</text><!--entity interfaceValueelementtestChange--><ellipse cx="933" cy="69" fill="#FFFFFF" filter="url(#f94o6es)" rx="8" ry="8" style="stroke: #808080; stroke-width: 2.0;"/><text fill="#000000" font-family="sans-serif" font-size="14" lengthAdjust="spacingAndGlyphs" textLength="52" x="907" y="90.9951">change</text><!--entity boundaryValueelementtestIn--><path d="M782,169 L782,193 M782,181 L799,181 " fill="#FFB74D" filter="url(#f94o6es)" style="stroke: #808080; stroke-width: 2.0;"/><ellipse cx="811" cy="181" fill="#FFB74D" filter="url(#f94o6es)" rx="12" ry="12" style="stroke: #808080; stroke-width: 2.0;"/><text fill="#000000" font-family="sans-serif" font-size="14" lengthAdjust="spacingAndGlyphs" textLength="27" x="789" y="209.9951">test</text><!--entity button--><rect fill="#FFFFFF" filter="url(#f94o6es)" height="36.2969" style="stroke: #448AFF; stroke-width: 1.5;" width="66" x="64.5" y="427"/><rect fill="#FFFFFF" height="5" style="stroke: #448AFF; stroke-width: 1.5;" width="10" x="59.5" y="432"/><rect fill="#FFFFFF" height="5" style="stroke: #448AFF; stroke-width: 1.5;" width="10" x="59.5" y="453.2969"/><text fill="#000000" font-family="sans-serif" font-size="14" lengthAdjust="spacingAndGlyphs" textLength="46" x="74.5" y="449.9951">button</text><!--entity valueelementtexst--><rect fill="#FFFFFF" filter="url(#f94o6es)" height="36.2969" style="stroke: #999999; stroke-width: 1.5;" width="54" x="240.5" y="497"/><text fill="#000000" font-family="sans-serif" font-size="14" lengthAdjust="spacingAndGlyphs" textLength="34" x="250.5" y="519.9951">texst</text><!--entity interfaceValueelementtexstSet--><ellipse cx="97.5" cy="507" fill="#D3D3D3" filter="url(#f94o6es)" rx="8" ry="8" style="stroke: #808080; stroke-width: 2.0;"/><text fill="#000000" font-family="sans-serif" font-size="14" lengthAdjust="spacingAndGlyphs" textLength="22" x="86.5" y="528.9951">set</text><!--entity interfaceValueelementtexstChange--><ellipse cx="635" cy="584" fill="#FFFFFF" filter="url(#f94o6es)" rx="8" ry="8" style="stroke: #808080; stroke-width: 2.0;"/><text fill="#000000" font-family="sans-serif" font-size="14" lengthAdjust="spacingAndGlyphs" textLength="52" x="609" y="605.9951">change</text><!--entity boundaryValueelementtexstOut--><path d="M782,595 L782,619 M782,607 L799,607 " fill="#FFF176" filter="url(#f94o6es)" style="stroke: #808080; stroke-width: 2.0;"/><ellipse cx="811" cy="607" fill="#FFF176" filter="url(#f94o6es)" rx="12" ry="12" style="stroke: #808080; stroke-width: 2.0;"/><text fill="#000000" font-family="sans-serif" font-size="14" lengthAdjust="spacingAndGlyphs" textLength="34" x="785.5" y="635.9951">texst</text><!--entity boundaryValueelementtexstIn--><path d="M247,607 L247,631 M247,619 L264,619 " fill="#FFB74D" filter="url(#f94o6es)" style="stroke: #808080; stroke-width: 2.0;"/><ellipse cx="276" cy="619" fill="#FFB74D" filter="url(#f94o6es)" rx="12" ry="12" style="stroke: #808080; stroke-width: 2.0;"/><text fill="#000000" font-family="sans-serif" font-size="14" lengthAdjust="spacingAndGlyphs" textLength="34" x="250.5" y="647.9951">texst</text><!--entity valueelementreadonly--><rect fill="#FFFFFF" filter="url(#f94o6es)" height="36.2969" style="stroke: #999999; stroke-width: 1.5;" width="79" x="228" y="686"/><text fill="#000000" font-family="sans-serif" font-size="14" lengthAdjust="spacingAndGlyphs" textLength="59" x="238" y="708.9951">readonly</text><!--entity interfaceValueelementreadonlySet--><ellipse cx="97.5" cy="696" fill="#D3D3D3" filter="url(#f94o6es)" rx="8" ry="8" style="stroke: #808080; stroke-width: 2.0;"/><text fill="#000000" font-family="sans-serif" font-size="14" lengthAdjust="spacingAndGlyphs" textLength="22" x="86.5" y="717.9951">set</text><!--entity interfaceValueelementreadonlyChange--><ellipse cx="635" cy="694" fill="#FFFFFF" filter="url(#f94o6es)" rx="8" ry="8" style="stroke: #808080; stroke-width: 2.0;"/><text fill="#000000" font-family="sans-serif" font-size="14" lengthAdjust="spacingAndGlyphs" textLength="52" x="609" y="715.9951">change</text><!--entity boundaryValueelementreadonlyOut--><path d="M782,678 L782,702 M782,690 L799,690 " fill="#FFF176" filter="url(#f94o6es)" style="stroke: #808080; stroke-width: 2.0;"/><ellipse cx="811" cy="690" fill="#FFF176" filter="url(#f94o6es)" rx="12" ry="12" style="stroke: #808080; stroke-width: 2.0;"/><text fill="#000000" font-family="sans-serif" font-size="14" lengthAdjust="spacingAndGlyphs" textLength="59" x="773" y="718.9951">readonly</text><!--entity interfaceGeneraterequestironAjax--><ellipse cx="635" cy="495" fill="#FFFFFF" filter="url(#f94o6es)" rx="8" ry="8" style="stroke: #808080; stroke-width: 2.0;"/><text fill="#000000" font-family="sans-serif" font-size="14" lengthAdjust="spacingAndGlyphs" textLength="117" x="576.5" y="516.9951">generaterequest</text><!--entity interfaceResponseironAjax--><ellipse cx="933" cy="530" fill="#ECEFF1" filter="url(#f94o6es)" rx="8" ry="8" style="stroke: #808080; stroke-width: 2.0;"/><text fill="#000000" font-family="sans-serif" font-size="14" lengthAdjust="spacingAndGlyphs" textLength="66" x="900" y="551.9951">response</text><!--entity interfaceValueChangedvalueObserver--><ellipse cx="267.5" cy="220" fill="#ECEFF1" filter="url(#f94o6es)" rx="8" ry="8" style="stroke: #808080; stroke-width: 2.0;"/><text fill="#000000" font-family="sans-serif" font-size="14" lengthAdjust="spacingAndGlyphs" textLength="99" x="218" y="241.9951">valueChanged</text><!--entity interfaceTapbutton--><ellipse cx="267.5" cy="437" fill="#ECEFF1" filter="url(#f94o6es)" rx="8" ry="8" style="stroke: #808080; stroke-width: 2.0;"/><text fill="#000000" font-family="sans-serif" font-size="14" lengthAdjust="spacingAndGlyphs" textLength="22" x="256.5" y="458.9951">tap</text><!--entity XXXXXnirvanaXXXXX--><ellipse cx="802.5" cy="264" fill="#F44336" filter="url(#f94o6es)" rx="12" ry="12" style="stroke: #B71C1C; stroke-width: 2.0;"/><line style="stroke: #B71C1C; stroke-width: 2.0;" x1="790.5" x2="814.5" y1="278" y2="278"/><text fill="#000000" font-family="sans-serif" font-size="14" lengthAdjust="spacingAndGlyphs" textLength="67" x="769" y="292.9951">no Target</text><path d="M1049.34,538 C1062.93,538 1087.67,538 1109.86,538 " fill="none" style="stroke: #616161; stroke-width: 1.0; stroke-dasharray: 7.0,7.0;"/><path d="M1203.12,538 C1223.45,538 1246.61,538 1263.76,538 " fill="none" style="stroke: #616161; stroke-width: 1.0; stroke-dasharray: 7.0,7.0;"/><path d="M646.353,353.687 C671.616,352.924 737.078,350.946 774.398,349.819 " fill="none" style="stroke: #616161; stroke-width: 1.0; stroke-dasharray: 7.0,7.0;"/><path d="M830.752,349 C853.295,349 885.057,349 906.967,349 " fill="none" style="stroke: #616161; stroke-width: 1.0; stroke-dasharray: 7.0,7.0;"/><path d="M802.5,436.938 C802.5,415.419 802.5,393.9 802.5,372.381 " fill="none" style="stroke: #FF5722; stroke-width: 1.0; stroke-dasharray: 1.0,3.0;"/><polygon fill="#FF5722" points="802.5,367.206,798.5,376.206,802.5,372.206,806.5,376.206,802.5,367.206" style="stroke: #FF5722; stroke-width: 1.0;"/><path d="M646.353,91.062 C672.678,88.676 742.65,82.334 778.948,79.044 " fill="none" style="stroke: #616161; stroke-width: 1.0; stroke-dasharray: 7.0,7.0;"/><path d="M826.177,77 C848.801,77 883.477,77 906.913,77 " fill="none" style="stroke: #616161; stroke-width: 1.0; stroke-dasharray: 7.0,7.0;"/><path d="M802.5,164.938 C802.5,143.419 802.5,121.9 802.5,100.381 " fill="none" style="stroke: #FF5722; stroke-width: 1.0; stroke-dasharray: 1.0,3.0;"/><polygon fill="#FF5722" points="802.5,95.206,798.5,104.206,802.5,100.206,806.5,104.206,802.5,95.206" style="stroke: #FF5722; stroke-width: 1.0;"/><path d="M108.506,515 C134.077,515 202.469,515 240.348,515 " fill="none" style="stroke: #616161; stroke-width: 1.0; stroke-dasharray: 7.0,7.0;"/><path d="M294.786,520.538 C362.551,534.814 542.513,572.726 608.923,586.717 " fill="none" style="stroke: #616161; stroke-width: 1.0; stroke-dasharray: 7.0,7.0;"/><path d="M661.136,595.493 C691.054,599.651 740.92,606.581 772.459,610.964 " fill="none" style="stroke: #FF5722; stroke-width: 1.0; stroke-dasharray: 1.0,3.0;"/><polygon fill="#FF5722" points="777.741,611.698,769.3775,606.4968,772.7886,611.0095,768.2759,614.4206,777.741,611.698" style="stroke: #FF5722; stroke-width: 1.0;"/><path d="M267.5,602.938 C267.5,581.419 267.5,559.9 267.5,538.381 " fill="none" style="stroke: #FF5722; stroke-width: 1.0; stroke-dasharray: 1.0,3.0;"/><polygon fill="#FF5722" points="267.5,533.206,263.5,542.206,267.5,538.206,271.5,542.206,267.5,533.206" style="stroke: #FF5722; stroke-width: 1.0;"/><path d="M108.506,704 C131.464,704 188.936,704 227.855,704 " fill="none" style="stroke: #616161; stroke-width: 1.0; stroke-dasharray: 7.0,7.0;"/><path d="M307.269,703.7879 C382.411,703.3767 545.998,702.4815 608.775,702.138 " fill="none" style="stroke: #616161; stroke-width: 1.0; stroke-dasharray: 7.0,7.0;"/><path d="M661.136,701.3925 C689.516,700.7066 735.843,699.5869 767.453,698.8229 " fill="none" style="stroke: #FF5722; stroke-width: 1.0; stroke-dasharray: 1.0,3.0;"/><polygon fill="#FF5722" points="772.784,698.694,763.6895,694.9137,767.7855,698.8154,763.8838,702.9114,772.784,698.694" style="stroke: #FF5722; stroke-width: 1.0;"/><path d="M693.884,515.241 C717.747,520.288 744.651,525.977 765.589,530.406 " fill="none" style="stroke: #616161; stroke-width: 1.0; stroke-dasharray: 7.0,7.0;"/><path d="M839.294,538 C858.305,538 881.482,538 899.905,538 " fill="none" style="stroke: #616161; stroke-width: 1.0; stroke-dasharray: 7.0,7.0;"/><path d="M966.025,538 C984.539,538 1006.99,538 1021.62,538 " fill="none" style="stroke: #FF6F00; stroke-width: 1.0;"/><polygon fill="#FF6F00" points="1026.63,538,1017.63,534,1021.63,538,1017.63,542,1026.63,538" style="stroke: #FF6F00; stroke-width: 1.0;"/><path d="M157.258,228 C177.034,228 198.868,228 217.784,228 " fill="none" style="stroke: #616161; stroke-width: 1.0; stroke-dasharray: 7.0,7.0;"/><path d="M267.5,210.656 C267.5,189.206 267.5,167.755 267.5,146.305 " fill="none" style="stroke: #FF5722; stroke-width: 1.0; stroke-dasharray: 1.0,3.0;"/><polygon fill="#FF5722" points="267.5,141.146,263.5,150.146,267.5,146.146,271.5,150.146,267.5,141.146" style="stroke: #FF5722; stroke-width: 1.0;"/><path d="M292.626,245.23 C307.678,255.34 327.784,267.714 347,276 C446.351,318.837 575.34,343.806 618.888,351.458 " fill="none" style="stroke: #FF6F00; stroke-width: 1.0;"/><polygon fill="#FF6F00" points="623.998,352.345,615.8136,346.8663,619.0715,351.4908,614.447,354.7487,623.998,352.345" style="stroke: #FF6F00; stroke-width: 1.0;"/><path d="M287.879,210.852 C303.038,198.234 325.144,181.513 347,171 C444.587,124.062 574.7,101.036 618.714,94.224 " fill="none" style="stroke: #FF6F00; stroke-width: 1.0;"/><polygon fill="#FF6F00" points="623.88,93.438,614.3803,90.8388,618.937,94.1909,615.5849,98.7476,623.88,93.438" style="stroke: #FF6F00; stroke-width: 1.0;"/><path d="M130.892,445 C169.604,445 232.191,445 256.447,445 " fill="none" style="stroke: #616161; stroke-width: 1.0; stroke-dasharray: 7.0,7.0;"/><path d="M317.04,225.332 C398.071,221.818 565.743,218.563 705,242 C724.926,245.354 746.455,251.762 764.111,257.797 " fill="none" style="stroke: #D50000; stroke-width: 1.0;"/><polygon fill="#D50000" points="768.984,259.487,761.7917,252.7587,764.2601,257.8486,759.1702,260.3169,768.984,259.487" style="stroke: #D50000; stroke-width: 1.0;"/><text fill="#666666" font-family="sans-serif" font-size="13" lengthAdjust="spacingAndGlyphs" textLength="22" x="624" y="223.0669">--f4</text><path d="M317.123,236.061 C375.719,245.39 477.251,260.322 565,267 C634.989,272.327 716.939,272.769 763.683,272.475 " fill="none" style="stroke: #D50000; stroke-width: 1.0;"/><polygon fill="#D50000" points="768.928,272.438,759.8997,268.5024,763.9281,272.4737,759.9568,276.5022,768.928,272.438" style="stroke: #D50000; stroke-width: 1.0;"/><text fill="#666666" font-family="sans-serif" font-size="13" lengthAdjust="spacingAndGlyphs" textLength="138" x="566" y="263.0669">--kappute-verbindung</text><path d="M278.657,446.612 C320.411,453.238 480.882,478.702 571.234,493.04 " fill="none" style="stroke: #339900; stroke-width: 1.0;"/><polygon fill="#339900" points="576.282,493.841,568.0192,488.4813,571.3437,493.0582,566.7667,496.3826,576.282,493.841" style="stroke: #339900; stroke-width: 1.0;"/><text fill="#666666" font-family="sans-serif" font-size="13" lengthAdjust="spacingAndGlyphs" textLength="186" x="348" y="454.0669">connectorButtonRequestAjax</text></g></svg>